<?xml version="1.0" encoding="UTF-8"?> <svg xmlns="http://www.w3.org/2000/svg" width="121" height="32" viewBox="0 0 121 32" fill="none"> <path d="M102.562 4C107.225 4 111.222 5.29972 113.837 6.84313C112.002 7.86666 109.581 8.61399 107.193 8.97141C106.916 8.35405 106.413 6.24202 101.588 6.64818L100.889 4.94232L100.158 5.20222L100.337 6.92439C100.337 6.92439 98.9232 7.49298 98.4846 7.80167C98.5171 7.96413 98.5983 8.28908 98.6471 8.48404C98.5821 8.56527 98.5008 8.6465 98.4196 8.72773C96.2426 8.27283 93.6756 7.493 91.7748 6.55071C95.0241 4.81234 98.6633 4 102.562 4ZM107.453 12.4644C107.453 12.4644 107.745 10.3849 107.371 9.44258C111.254 8.8577 113.643 7.73669 114.536 7.24929C115.771 8.01288 117.282 9.2801 118.24 10.5961C116.664 11.1484 112.538 12.1882 107.453 12.4644ZM87.2908 10.1737C88.3468 8.87397 89.7602 7.7367 91.0112 7.00561C91.9535 7.42801 94.5854 8.56524 97.9647 9.2151C97.5423 9.7025 95.8039 11.4084 95.4303 11.9608C91.0924 11.3109 88.5418 10.5798 87.2745 10.1737M120.174 15.8599C119.134 15.8599 107.339 15.8599 106.754 15.8599C106.819 15.0801 107.144 14.0728 107.29 13.163C113.821 12.8056 117.753 11.5871 118.711 11.3272C119.637 12.7731 120.157 14.414 120.174 15.8599ZM85.0163 15.8599C85.065 14.4303 85.4874 12.6269 86.8196 10.7585C89.0292 11.4734 92.5871 12.2857 95.5277 12.6431C96.9087 14.8851 98.2571 13.5854 98.8908 13.0818C99.7193 13.1143 101.117 13.2118 101.117 13.2118C101.117 13.2118 99.0045 14.2515 98.0622 15.8599H85M106.657 16.5585C106.559 17.6308 107.046 18.5731 107.355 18.9792C113.691 19.5479 117.802 20.8801 118.614 21.1238C119.264 20.149 120.06 18.5568 120.157 16.5747C119.751 16.5747 107.16 16.5747 106.673 16.5747M85.0163 16.5747C85.0975 18.3781 85.6986 19.7916 86.3972 20.9288C87.3558 20.6364 90.3613 19.5479 97.2011 18.9468C97.1524 18.3132 97.3798 17.1109 97.656 16.5747C97.656 16.5747 85.5686 16.5747 85.0163 16.5747ZM86.8034 21.5462C87.8432 23.0409 89.4191 24.3893 91.0599 25.3641C91.4174 25.1366 94.4067 23.2521 100.174 22.7809C99.6544 21.9198 97.5098 21.8874 97.5098 21.8874V21.205H107.518V21.8874C107.063 21.9524 105.211 22.1148 104.707 22.8296C109.353 23.2033 112.83 24.7792 114.146 25.2829C115.738 24.3406 117.233 23.0246 118.192 21.7574C117.331 21.4487 112.538 20.0678 107.745 19.6941C107.745 19.6941 108.005 20.4414 107.501 20.9938C107.176 20.9938 97.5098 20.9938 97.5098 20.9938C97.5098 20.9938 97.2986 20.2465 97.2498 19.6129C91.3199 20.0515 87.4857 21.3025 86.7871 21.5624M113.334 25.754C113.334 25.754 109.532 23.8532 104.496 23.382C104.447 23.6257 104.496 24.1294 104.951 24.4706C105.389 24.7792 105.925 24.8605 106.803 24.8767C107.209 24.8767 107.404 24.8767 108.054 24.8605V27.7036C109.873 27.2974 111.823 26.5826 113.318 25.7703M96.7462 24.8442C96.7462 24.8442 99.2482 24.9904 99.9792 24.5193C100.515 24.1781 100.467 23.4633 100.418 23.3171C96.2751 23.577 93.2045 24.7305 91.6936 25.7703C93.0908 26.5338 94.8616 27.2325 96.7462 27.6711V24.8442ZM97.9647 28.7109H98.6471V27.4924H99.7356V26.94H98.6471V26.2414H99.8168V25.6728H97.9647V28.7109ZM101.035 25.6728H100.353V28.7109H101.035V25.6728ZM102.319 26.2089C102.319 26.2089 102.481 26.1764 102.627 26.1764C103.212 26.1764 103.586 26.5176 103.586 27.135C103.586 27.866 103.18 28.2072 102.562 28.2072C102.481 28.2072 102.384 28.2072 102.319 28.2072V26.2252V26.2089ZM101.636 28.7109C101.815 28.7271 102.059 28.7596 102.416 28.7596C103.017 28.7596 103.505 28.6296 103.813 28.3697C104.106 28.126 104.317 27.7198 104.317 27.135C104.317 26.5988 104.122 26.2252 103.797 25.9815C103.505 25.754 103.131 25.6566 102.546 25.6566C102.205 25.6566 101.864 25.6728 101.62 25.7215V28.7109H101.636ZM106.592 26.8751H105.471V26.2414H106.657V25.6728H104.772V28.7109H106.705V28.1423H105.454V27.4274H106.575V26.8751H106.592Z" fill="#111111"></path> <g clip-path="url(#clip0_665_464)"> <path d="M9.99104 3.71886H12.6718V2.69028H9.99104V1.16357H12.9589V0.125488H8.86169V5.89009H9.99104V3.71886Z" fill="#1D1D1B"></path> <path d="M14.5179 0.125488H13.3905V5.89009H14.5179V0.125488Z" fill="#1D1D1B"></path> <path d="M20.6685 2.96026C20.6685 1.23012 19.6894 0.125488 17.6493 0.125488H15.2347V5.89009H17.6702C19.5696 5.89009 20.6685 4.67899 20.6685 2.95836V2.96026ZM16.3641 4.96798V1.0476H17.5029C18.9175 1.0476 19.5525 1.70163 19.5525 2.96026C19.5525 4.21889 18.9593 4.96798 17.5638 4.96798H16.366H16.3641Z" fill="#1D1D1B"></path> <path d="M23.222 5.35203C23.3284 5.40337 23.4444 5.44329 23.5927 5.50413C23.9254 5.25697 24.5053 5.27789 24.8494 4.93566C24.8818 4.90334 24.9274 4.87672 24.9768 4.8501H22.2409V3.4755H25.1004V2.45643H22.2409V1.15977H25.378V0.125488H21.1116V5.89009H21.2941C21.6991 5.72278 22.0812 5.53265 22.5432 5.4509C22.7676 5.41097 22.9463 5.22085 23.2182 5.35203H23.222Z" fill="#1D1D1B"></path> <path d="M34.2854 3.20547C34.35 3.17124 34.3728 3.2568 34.4242 3.28722C34.4508 3.30243 34.4755 3.31954 34.5002 3.33475L35.3653 0.123535H34.1979L33.5933 2.74727C33.5515 2.94309 33.5116 3.13322 33.4697 3.32334C33.734 3.38038 34.0268 3.34236 34.2835 3.20547H34.2854Z" fill="#1D1D1B"></path> <path d="M28.7489 3.52303C28.8402 3.55915 28.9162 3.56296 28.9866 3.54965C28.9314 3.28727 28.8763 3.023 28.8135 2.74922L28.1804 0.125488H26.9636L27.9333 3.74928C28.1443 3.67893 28.3553 3.61239 28.5664 3.54394C28.6234 3.52493 28.7033 3.50592 28.7489 3.52303Z" fill="#1D1D1B"></path> <path d="M30.6919 3.02485C30.8383 2.39363 30.9942 1.70158 31.1197 1.08557H31.1786C31.3041 1.71679 31.4562 2.40884 31.6007 3.04196C31.8422 2.99633 32.1217 3.02105 32.3802 3.01344C32.4696 3.01154 32.5571 3.01724 32.6464 3.02295C32.6255 2.93359 32.6046 2.84613 32.5837 2.75677L31.9106 0.123535H30.5246L29.8326 2.75677C29.7983 2.88606 29.7679 3.01344 29.7356 3.13892C29.8478 3.07998 29.9656 3.02865 30.0892 3.00393C30.2737 2.96591 30.4866 2.98492 30.6919 3.02295V3.02485Z" fill="#1D1D1B"></path> <path d="M36.0459 3.37473C36.0877 3.3367 36.158 3.32149 36.2113 3.29107C36.2246 3.28347 36.2379 3.27776 36.2512 3.27016C36.2417 3.17509 36.236 3.07813 36.236 2.97736C36.236 1.87273 36.9185 0.988652 38.1562 0.988652C39.2875 0.988652 39.9434 1.71683 40.0575 2.67697C40.0879 2.68647 40.1183 2.69408 40.1469 2.70358C40.5062 2.81956 40.9264 2.68647 41.1583 2.4222C40.9264 0.998158 39.816 0 38.1562 0C36.3063 0 35.118 1.26814 35.118 2.98877C35.118 3.13707 35.1294 3.28156 35.1466 3.42226C35.1922 3.43937 35.2378 3.45648 35.2796 3.47359C35.5059 3.56485 35.8823 3.52302 36.0478 3.37473H36.0459Z" fill="#1D1D1B"></path> <path d="M42.6869 1.59511C42.7174 1.57799 42.7478 1.55898 42.7782 1.54187V1.09508H43.4703C43.5444 1.03994 43.6186 0.982902 43.687 0.923963C43.8448 0.790875 43.9703 0.792776 44.1566 0.804184C44.5578 0.8289 44.9646 0.807986 45.362 0.807986C45.6092 0.807986 45.8563 0.861222 46.094 0.927766C45.7974 0.412526 45.1833 0.123535 44.2346 0.123535H41.6508V1.93923C41.7192 1.91642 41.7972 1.90121 41.8884 1.8936C42.166 1.87079 42.4474 1.72629 42.6888 1.5932L42.6869 1.59511Z" fill="#1D1D1B"></path> <path d="M47.8279 0.494331C47.8812 0.469615 47.9496 0.435393 48.001 0.442998C48.0409 0.448701 48.0808 0.454405 48.1207 0.458208V0.125488H46.9933V0.952534C47.075 0.88599 47.1587 0.821347 47.2519 0.76431C47.4268 0.657839 47.6321 0.581789 47.8279 0.496233V0.494331Z" fill="#1D1D1B"></path> <path d="M51.9993 1.17493C52.0545 1.19774 52.1096 1.22056 52.1628 1.24337V1.04754H53.3017C53.9995 1.04754 54.5071 1.20725 54.8436 1.51906C55.2467 1.38597 55.6592 1.35365 56.0794 1.35174C55.6212 0.576034 54.7524 0.123535 53.45 0.123535H51.0354V0.846011C51.1989 0.88974 51.351 0.958186 51.5107 1.01142C51.6723 1.06656 51.8434 1.11029 51.9993 1.17303V1.17493Z" fill="#1D1D1B"></path> <path d="M32.9145 14.5521V14.5369C32.9145 14.5369 32.8993 14.5464 32.8917 14.5521H32.9145Z" fill="#1D1D1B"></path> <path d="M38.9073 11.8563C38.7229 11.9704 38.5518 12.0559 38.2951 11.9837C38.1791 13.0066 37.5308 13.6872 36.3958 13.6872C35.8178 13.6872 35.3672 13.5085 35.0478 13.2005C34.9926 13.2404 34.9394 13.286 34.8919 13.345C34.7778 13.4857 34.5725 13.5218 34.4223 13.6283C34.3443 13.6834 34.3025 13.8013 34.2321 13.8716C34.2321 13.8716 34.2321 13.8716 34.2302 13.8735C34.7493 14.3755 35.4832 14.6778 36.3958 14.6778C38.3065 14.6778 39.4435 13.3811 39.4435 11.651C39.4435 11.6491 39.4435 11.6472 39.4435 11.6453C39.3275 11.6757 39.2096 11.7061 39.0936 11.7384C39.0252 11.7574 38.9701 11.8183 38.9073 11.8563Z" fill="#1D1D1B"></path> <path d="M44.0064 10.9608V11.3125C44.0064 11.8791 44.0159 12.5902 44.0254 13.2537H44.0159C43.6984 12.6187 43.244 11.7555 42.8371 11.0444L42.8181 11.0102C42.7116 11.0197 42.6033 11.0292 42.4968 11.0387C42.4512 11.0425 42.3827 11.0254 42.3504 11.0007C42.0462 10.7631 41.8123 10.9171 41.569 11.0216C41.7496 11.3543 41.9264 11.6757 42.0785 11.9285L43.6128 14.5523H45.0882V10.7764C44.7783 10.8448 44.4703 10.9171 44.1566 10.9684C44.109 10.976 44.0596 10.9684 44.0083 10.9608H44.0064Z" fill="#1D1D1B"></path> <path d="M40.2552 11.5406C40.1602 11.5026 40.048 11.5045 39.9548 11.5235C39.932 11.5273 39.9111 11.5349 39.8883 11.5387V14.5522H40.9663V12.0254C40.9663 11.7554 40.9644 11.4265 40.9587 11.0862C40.9169 11.1261 40.8884 11.1888 40.8636 11.2611C40.7591 11.5748 40.5518 11.6623 40.2514 11.5406H40.2552Z" fill="#1D1D1B"></path> <path d="M45.7575 10.5444C45.8411 11.3106 46.4058 11.8715 47.9116 12.1015C49.0295 12.265 49.3756 12.5046 49.3756 12.9761C49.3756 13.4476 48.9801 13.7252 48.2177 13.7252C47.307 13.7252 46.7328 13.2442 46.575 12.4286L45.4856 12.6396C45.6244 13.7537 46.3469 14.6663 48.1474 14.6777C49.7805 14.6777 50.522 13.9762 50.522 12.9381C50.522 12.1206 50.0771 11.4494 48.404 11.1889C47.0979 10.9779 46.8792 10.6984 46.8792 10.3144C46.8792 10.2953 46.883 10.2763 46.8849 10.2573C46.7062 10.3372 46.5256 10.4132 46.3412 10.4779C46.1624 10.5425 45.9533 10.5311 45.7537 10.5444H45.7575Z" fill="#1D1D1B"></path> <path d="M49.4402 9.70222C49.2311 9.84481 49.0029 9.86382 48.7653 9.8296C49.0238 10.0235 49.174 10.3353 49.2786 10.7574L50.387 10.5369C50.2787 10.0349 50.079 9.59004 49.7311 9.25732C49.7159 9.29535 49.7045 9.33718 49.695 9.38091C49.6684 9.51589 49.5467 9.62807 49.4383 9.70222H49.4402Z" fill="#1D1D1B"></path> <path d="M54.9957 11.1413H52.1267V8.7876H50.9973V14.5522H52.1267V12.1794H54.9957V14.5522H56.125V8.7876H54.9957V11.1413Z" fill="#1D1D1B"></path> <path d="M57.9788 8.7876H56.8513V14.5522H57.9788V8.7876Z" fill="#1D1D1B"></path> <path d="M61.0018 8.78755H58.6956V14.5521H59.823V12.5539H61.0398C62.3859 12.5539 63.1578 11.7459 63.1578 10.6698C63.1578 9.42066 62.4258 8.78564 60.9999 8.78564L61.0018 8.78755ZM60.9219 11.5843H59.823V9.75909H60.901C61.6634 9.75909 61.9904 10.0481 61.9904 10.6717C61.9904 11.2953 61.6235 11.5843 60.9219 11.5843Z" fill="#1D1D1B"></path> <path d="M26.2715 17.906C26.1175 17.8661 25.9597 17.8623 25.8057 17.8623C25.6879 17.8623 25.5738 17.8889 25.4578 17.9079C25.3551 17.9231 25.2544 17.944 25.1536 17.9592C24.8266 18.0125 24.4958 18.1722 24.1745 18.0885C23.8398 18.003 23.4995 18.1037 23.1668 18.022C22.7561 18.4593 22.5242 19.0905 22.4652 19.8814L23.5242 19.967C23.6136 18.8129 24.1174 18.3053 24.9597 18.3053C25.7126 18.3053 26.0586 18.6703 26.0586 19.1513C26.0586 19.6989 25.7221 19.9974 24.4463 20.3149C22.952 20.6894 22.3093 21.2655 22.3093 22.6211C22.3093 22.8321 22.3188 23.0242 22.3283 23.2162H27.2678V22.2466H24.684C24.3285 22.2466 23.8322 22.2561 23.4273 22.2656C23.4672 21.6401 23.7942 21.41 24.8817 21.1229C26.3761 20.7959 27.1975 20.2483 27.1975 19.1627C27.1975 18.5657 26.9997 18.1132 26.6271 17.8071C26.5301 17.8832 26.4293 17.9497 26.2715 17.9098V17.906Z" fill="#1D1D1B"></path> <path d="M30.0512 17.3242C28.477 17.3242 27.418 18.4479 27.418 20.313C27.418 22.1781 28.437 23.3398 30.0512 23.3398C31.6654 23.3398 32.6939 22.1876 32.6939 20.313C32.6939 18.4384 31.6445 17.3242 30.0512 17.3242ZM30.0417 22.3587C29.0721 22.3587 28.5378 21.5127 28.5378 20.3111C28.5378 19.1095 29.0721 18.3034 30.0512 18.3034C31.0303 18.3034 31.576 19.1209 31.576 20.3111C31.576 21.5013 31.0418 22.3587 30.0417 22.3587Z" fill="#1D1D1B"></path> <path d="M33.9716 22.2637C34.0115 21.6382 34.3385 21.4082 35.426 21.1211C36.9204 20.7941 37.7418 20.2465 37.7418 19.1609C37.7418 17.9593 36.9394 17.3357 35.5249 17.3357C33.9507 17.3357 33.1293 18.2863 33.0114 19.8815L34.0704 19.967C34.1598 18.813 34.6636 18.3053 35.5059 18.3053C36.2588 18.3053 36.6048 18.6704 36.6048 19.1514C36.6048 19.699 36.2683 19.9974 34.9906 20.315C33.4963 20.6895 32.8536 21.2656 32.8536 22.6212C32.8536 22.8322 32.8631 23.0242 32.8726 23.2163H37.8121V22.2466H35.2283C34.8728 22.2466 34.3765 22.2561 33.9716 22.2656V22.2637Z" fill="#1D1D1B"></path> <path d="M41.4207 20.2731V20.2636C42.1622 20.062 42.5691 19.619 42.5691 18.8889C42.5691 17.8794 41.877 17.3508 40.4321 17.3508C38.9871 17.3508 38.2551 18.1284 38.1068 19.3205L39.1658 19.4175C39.2742 18.7159 39.5822 18.3034 40.4435 18.3034C41.1469 18.3034 41.5215 18.5334 41.5215 19.1209C41.5215 19.7084 41.1051 19.908 40.5119 19.908H39.5613V20.7256H40.5309C41.4511 20.7256 41.6983 20.9841 41.6983 21.5127C41.6983 22.0412 41.2724 22.3587 40.51 22.3587C39.47 22.3587 39.1145 21.9062 39.0061 21.1096L37.8977 21.1952C38.027 22.5888 38.8883 23.3094 40.491 23.3094C42.0938 23.3094 42.8277 22.6173 42.8277 21.6287C42.8277 20.8206 42.4911 20.408 41.4226 20.2731H41.4207Z" fill="#1D1D1B"></path> <path d="M53.7998 1.70351C53.6572 1.72252 53.4823 1.78336 53.372 1.74154C52.9614 1.58944 52.5659 1.41262 52.1628 1.24341V4.96796H53.3606C54.7562 4.96796 55.3493 4.20936 55.3493 2.96024C55.3493 2.32332 55.1858 1.8404 54.8417 1.52099C54.8056 1.5324 54.7695 1.54381 54.7333 1.55711C54.4558 1.66168 54.1135 1.65978 53.7979 1.70351H53.7998Z" fill="#1D1D1B"></path> <path d="M42.7782 2.63333H44.1243C44.8068 2.63333 45.1928 2.34434 45.1928 1.8253C45.1928 1.36329 44.9152 1.09521 44.1832 1.09521H43.4703C43.2535 1.25682 43.0197 1.40322 42.7782 1.54201V2.63333Z" fill="#1D1D1B"></path> <path d="M39.0955 2.70927C39.0613 2.94313 38.8769 2.89369 38.7076 2.88419C38.297 2.86137 37.8863 2.80624 37.4775 2.81194C37.1809 2.81574 36.8672 2.83095 36.6372 3.04199C36.5345 3.13705 36.3862 3.19979 36.2512 3.27204C36.352 4.32344 37.0022 5.0269 38.1563 5.0269C39.413 5.0269 40.0765 4.19035 40.0765 2.97925C40.0765 2.87658 40.0689 2.77582 40.0575 2.67695C39.8731 2.62181 39.6773 2.57618 39.4853 2.56668C39.3541 2.56097 39.1069 2.64653 39.0974 2.70737L39.0955 2.70927Z" fill="#1D1D1B"></path> <path d="M36.236 12.4077C36.2645 12.4039 36.3026 12.3735 36.3083 12.3431C36.3577 12.0997 36.5725 12.1187 36.7037 12.1624C37.0403 12.2765 37.2646 12.0579 37.5441 12.0179C37.7836 11.9837 38.0346 11.902 38.2704 11.9761C38.2799 11.978 38.2875 11.9799 38.2951 11.9818C38.3084 11.8715 38.316 11.7575 38.316 11.6396C38.316 10.535 37.643 9.65088 36.3957 9.65088C35.1485 9.65088 34.4755 10.535 34.4755 11.6396C34.4755 12.2936 34.6713 12.8374 35.0477 13.2005C35.3158 13.0047 35.6599 12.9914 35.9603 12.8336C35.966 12.6511 35.9946 12.4362 36.236 12.4058V12.4077Z" fill="#1D1D1B"></path> <path d="M29.2394 9.75732H28.1614V11.5825H29.2603C29.9638 11.5825 30.3288 11.2935 30.3288 10.6699C30.3288 10.0463 30.0018 9.75732 29.2394 9.75732Z" fill="#1D1D1B"></path> <path d="M64.4772 0.566554C63.8821 0.68253 63.441 0.366922 62.8973 0.370725C62.6216 0.372626 62.3535 0.307983 62.1082 0.209118C61.3154 -0.114095 60.823 0.197711 60.3382 0.54564C60.2127 0.634999 60.1024 0.739568 59.9693 0.819421C59.4294 1.14454 58.783 1.10651 58.1593 1.14644C57.9255 1.16165 57.6517 1.09891 57.5414 1.36318C57.4768 1.34797 57.4102 1.34417 57.3589 1.31945C57.1099 1.20157 56.8703 1.17305 56.6193 1.32706C56.5585 1.36508 56.4444 1.35748 56.357 1.35557C56.2638 1.35557 56.1725 1.35367 56.0813 1.35557C56.3417 1.79476 56.471 2.33662 56.471 2.96213C56.471 4.68277 55.3721 5.89387 53.4728 5.89387H51.0372V0.846038C51.0372 0.846038 51.022 0.840334 51.0144 0.838433C50.9118 0.811816 50.7901 0.821322 50.6798 0.832729C50.6171 0.838433 50.5581 0.880261 50.4992 0.904977C50.1684 1.04377 49.8642 0.876458 49.6569 0.756679C49.1816 0.480998 48.6417 0.522825 48.1264 0.458182V4.85198H50.8091V5.89006H46.999V0.950607C46.9248 1.01145 46.8545 1.07229 46.7822 1.12742C46.5693 1.07419 46.3373 0.994336 46.0978 0.927792C46.2366 1.16925 46.3069 1.46014 46.3069 1.79476C46.3069 2.71687 45.8221 3.30246 44.9513 3.5154L46.6929 5.86915V5.88816H45.3278L43.7745 3.60096H42.7839V5.88816H41.6565V1.94116C41.4625 2.0039 41.3466 2.12178 41.2705 2.27198C41.242 2.32711 41.2059 2.37655 41.164 2.42408C41.1945 2.6066 41.2116 2.79482 41.2116 2.98875C41.2116 4.71889 40.0727 6.01555 38.1639 6.01555C36.4261 6.01555 35.3291 4.92993 35.1542 3.42224C35.042 3.38041 34.9222 3.34809 34.8424 3.37471C34.6884 3.42604 34.599 3.38801 34.5096 3.33478L33.8214 5.89006H32.308L31.654 3.22831C31.6407 3.16747 31.6254 3.10473 31.6121 3.04199C31.5722 3.04959 31.5342 3.0591 31.4981 3.07051C31.2832 3.13895 31.152 3.13135 30.9467 3.07811C30.8687 3.0572 30.787 3.04009 30.7033 3.02488C30.6881 3.09332 30.671 3.16367 30.6558 3.22831L30.0227 5.89006H28.5188L27.9446 3.74925C27.7697 3.80629 27.5967 3.86523 27.4275 3.92987C27.1233 4.04585 26.8286 4.16182 26.4788 4.17703C26.3324 4.18274 26.1517 4.23597 26.0548 4.31963C25.8513 4.49645 25.6935 4.69418 25.357 4.74361C25.2353 4.76072 25.0984 4.79875 24.9901 4.85388H25.4007V5.89197H21.3092C21.3092 5.89197 21.294 5.89767 21.2864 5.90147C21.0792 5.98703 20.8282 6.05357 20.6001 6.04977C20.2921 6.04407 20.0658 6.0916 19.8966 6.30454C19.8396 6.37488 19.7274 6.41481 19.6476 6.47375C19.4403 6.63155 19.0353 6.5479 18.9384 6.84069C18.9346 6.8502 18.9004 6.8559 18.8813 6.8597C18.4821 6.93005 18.0809 7.0023 17.6417 7.07835C17.6322 7.09546 17.598 7.1563 17.56 7.21714C17.2843 7.65633 16.944 7.7571 16.3717 7.57648C16.328 7.56317 16.2576 7.57077 16.2196 7.58978C15.9249 7.73998 15.5903 7.83695 15.2481 7.77801C14.9705 7.72858 14.6758 7.67914 14.383 7.66964C13.9438 7.65443 13.6016 7.99475 13.1358 7.89399C13.1282 7.89399 13.1167 7.90539 13.1072 7.90539C12.7479 7.9168 12.4152 8.10122 12.0235 7.913C11.706 7.7609 11.3448 8.00616 11.3961 8.30085C11.2972 8.32177 11.1794 8.38261 11.0976 8.35979C10.7763 8.26853 10.4911 8.375 10.1907 8.42253C10.0823 8.43965 9.93595 8.46436 9.858 8.42444C9.4093 8.19058 8.89596 8.30276 8.41875 8.23621C8.01188 8.17917 7.5898 8.19629 7.17343 8.18298C7.05555 8.17917 6.93197 8.17157 6.81789 8.19248C6.40342 8.27043 5.99655 8.38071 5.57828 8.43584C5.3064 8.47197 5.006 8.39021 4.74172 8.43965C4.27021 8.529 3.81771 8.6811 3.35191 8.79898C3.06862 8.87123 2.75491 8.89024 2.49634 8.99481C2.22066 9.10699 2.02293 9.09748 1.75295 8.9834C1.5286 8.88834 1.23771 8.86933 0.973439 8.85602C0.646423 8.83891 0.273777 9.02713 0.224345 9.19634C0.193925 9.29901 0.115973 9.39598 0.0133057 9.48153V22.8854C0.083652 22.9044 0.153998 22.9101 0.222444 22.9196C0.604596 22.9728 0.984846 23.0147 1.367 23.0698C1.49438 23.0888 1.63698 23.1782 1.75105 23.1573C2.1275 23.0888 2.45071 22.8378 2.63704 22.526C2.90321 22.0792 3.29107 21.988 3.70744 21.8682C4.06107 21.7674 4.51928 21.9271 4.74933 21.5051C4.75503 21.4937 4.78545 21.4918 4.79876 21.4994C5.09155 21.6686 5.3121 21.5279 5.57067 21.4613C6.065 21.3358 6.64868 21.4765 7.02513 21.0126C7.05935 20.9708 7.1335 20.9727 7.19244 20.9613C7.39587 20.9233 7.60311 20.9005 7.80274 20.8529C8.21531 20.756 8.59556 21.083 8.99103 21.2009C9.37128 21.3149 9.74963 21.467 10.1299 21.5963C10.1831 21.6153 10.2611 21.6153 10.2953 21.5811C10.6641 21.2028 11.1413 21.5184 11.5178 21.6933C11.9513 21.8929 12.2669 21.621 12.6509 21.7465C12.6604 21.7465 12.6719 21.7427 12.6814 21.7408C12.9494 21.4918 13.2156 21.2408 13.4799 20.9955C13.7898 21.0659 14.1434 21.1914 14.4856 21.2161C14.8412 21.2408 15.1891 21.1742 15.537 21.1305C15.6549 21.1153 15.7652 21.064 15.8679 21.0031C15.9895 20.9328 16.0922 20.8586 16.1397 20.6666C16.1778 20.5126 16.3736 20.4366 16.5067 20.3396C16.7386 20.1704 16.9497 19.9194 17.2177 19.87C17.4934 19.8167 17.6094 19.6456 17.6855 19.408C17.809 19.0258 18.1418 18.8319 18.5277 18.9156C18.7483 18.965 18.9707 18.9555 19.1913 18.9536C19.3605 18.9536 19.4764 18.8737 19.3928 18.6323C19.7635 18.6323 20.1172 18.6475 20.4632 18.6266C20.7046 18.6114 20.9366 18.5486 21.1705 18.5011C21.1952 18.4954 21.2066 18.4478 21.2256 18.4231C21.3016 18.3262 21.3701 18.2178 21.4575 18.1398C21.5374 18.0676 21.661 18.0524 21.7275 17.9687C21.9005 17.7558 22.0869 17.6607 22.3816 17.7938C22.5222 17.8585 22.682 17.828 22.8322 17.8413C22.9462 17.9326 23.0622 17.9839 23.1801 18.0125C23.5984 17.5676 24.1992 17.3242 24.9939 17.3242C25.7068 17.3242 26.2639 17.4839 26.6404 17.7938C26.6917 17.752 26.743 17.7083 26.802 17.6759C27.1366 17.4915 27.3895 17.1227 27.8363 17.1683C27.9104 17.1759 27.9941 17.1512 28.053 17.1094C28.4275 16.8451 28.7888 16.5561 29.2375 16.4287C29.363 16.3926 29.5417 16.3869 29.5949 16.2842C29.8497 15.8013 30.3421 15.6758 30.6957 15.345C30.8649 15.1853 31.1083 15.1245 31.2927 14.9819C31.4011 14.8982 31.4714 14.8621 31.6274 14.9305C31.7871 15.0009 31.9734 14.9895 32.135 14.9647C32.2472 14.9476 32.3346 14.8431 32.4373 14.786C32.5285 14.7347 32.6255 14.6929 32.7187 14.6472C32.7814 14.6168 32.8422 14.5807 32.9031 14.5427H31.7985V8.77807H32.9259V14.5275C33.2491 14.3183 33.54 14.0426 33.9735 14.0617C34.0705 14.0655 34.1598 13.9438 34.2397 13.8639C33.6769 13.3202 33.367 12.5406 33.367 11.6414C33.367 9.92072 34.5553 8.65259 36.4052 8.65259C38.2551 8.65259 39.451 9.91882 39.4529 11.6357C39.6012 11.5976 39.7495 11.5615 39.8997 11.5292V8.77807H41.5633L42.8314 11.0025C43.1527 10.974 43.4722 10.9455 43.7954 10.9265C43.8676 10.9227 43.9437 10.9417 44.0197 10.9531V8.77807H45.0977V10.7668C45.132 10.7592 45.1662 10.7516 45.2004 10.744C45.2194 10.7402 45.2365 10.7345 45.2517 10.7269C45.3715 10.6717 45.4818 10.5748 45.6092 10.5538C45.6605 10.5443 45.7156 10.5405 45.7689 10.5367C45.7613 10.4683 45.7556 10.3979 45.7556 10.3257C45.7556 9.30662 46.5275 8.65449 47.9724 8.65449C48.7957 8.65449 49.3584 8.88264 49.7425 9.24958C49.8338 9.00432 50.0296 8.88454 50.2178 8.8199C50.5981 8.68681 51.0201 8.66019 51.427 8.59745C51.4993 8.58604 51.5905 8.58034 51.6552 8.62217C52.2217 8.9815 52.4974 8.30085 52.986 8.38451C52.9917 8.38451 53.0012 8.375 53.0031 8.3674C53.0697 8.13544 53.1971 7.9149 53.1857 7.67154C53.1686 7.3122 53.4062 7.28558 53.5697 7.19623C53.8036 7.06694 54.0812 7.02511 54.3397 6.94526C54.4728 6.90343 54.6078 6.86541 54.7352 6.81027C55.1497 6.63155 55.5603 6.43953 55.9767 6.26651C56.1307 6.20187 56.3113 6.0954 56.4615 6.15244C56.7448 6.25891 56.9882 6.34446 57.1878 6.0954C57.2087 6.06878 57.2886 6.11251 57.3323 6.0973C57.3779 6.08209 57.4121 6.03836 57.4521 6.00604C57.5034 5.96421 57.549 5.91288 57.6061 5.88056C57.8494 5.74367 58.1099 5.6372 58.3362 5.47559C58.6347 5.26265 58.9731 5.23603 59.3381 5.28547C59.648 5.32729 59.9883 5.46989 60.2583 5.39574C60.6291 5.29307 60.9504 5.0364 61.2869 4.83487C61.593 4.65045 61.8668 4.41279 62.2375 4.34815C62.4144 4.31773 62.6064 4.20555 62.7033 4.04775C63.0817 3.42604 63.6521 3.22261 64.3232 3.69792C64.4088 3.75876 64.5209 3.77967 64.616 3.78348C64.7301 3.78918 64.8442 3.78918 64.9582 3.79108V0.629295C64.7928 0.577961 64.6312 0.538035 64.4905 0.566554H64.4772ZM4.91474 13.6871C5.94332 13.6871 6.48898 13.0426 6.66579 12.0159L7.7343 12.1794C7.55558 13.6396 6.48707 14.6777 4.91284 14.6777C3.09144 14.6777 1.94308 13.419 1.94308 11.6509C1.94308 9.8827 3.14087 8.66209 4.93185 8.66209C6.51559 8.66209 7.54417 9.63363 7.7419 11.0938L6.65248 11.2763C6.49468 10.2763 5.9205 9.65265 4.90143 9.65265C3.71315 9.65265 3.06102 10.5367 3.06102 11.6509C3.06102 12.8525 3.71505 13.689 4.91094 13.689L4.91474 13.6871ZM13.2936 14.5522H12.1661V12.1794H9.29523V14.5522H8.16778V8.78758H9.29523V11.1413H12.1661V8.78758H13.2936V14.5522ZM18.2292 14.5522L17.6855 13.1205H15.1321L14.5769 14.5522H13.4095L15.7842 8.78758H17.0714L19.446 14.5522H18.2292ZM26.2924 14.5522H25.165V11.8809C25.165 11.2079 25.1954 10.3618 25.2144 9.69067C24.9768 10.4398 24.6593 11.3923 24.3246 12.2555L23.4139 14.5522H22.3854L21.5051 12.2174C21.159 11.3048 20.872 10.4303 20.6438 9.69067H20.6343C20.6438 10.3637 20.6438 11.1984 20.6438 11.8809V14.5522H19.5658V8.78758H21.3378L22.3378 11.3828C22.4956 11.7763 22.7732 12.5749 22.9919 13.2859C23.22 12.5844 23.4862 11.7973 23.6649 11.3448L24.665 8.78948H26.2981V14.5541L26.2924 14.5522ZM29.3763 12.554H28.1595V14.5522H27.032V8.78758H29.3382C30.7642 8.78758 31.4962 9.42259 31.4962 10.6717C31.4962 11.7478 30.7243 12.5559 29.3782 12.5559L29.3763 12.554Z" fill="#1D1D1B"></path> <path d="M40.9282 9.82373C40.9453 10.2173 40.9548 10.6622 40.9605 11.0843C41.01 11.0367 41.0784 11.0177 41.1868 11.0576C41.2819 11.0938 41.3978 11.0843 41.4853 11.0519C41.5119 11.0424 41.5404 11.031 41.567 11.0196C41.3465 10.6089 41.1221 10.1774 40.9472 9.82373H40.9282Z" fill="#1D1D1B"></path> <path d="M16.3773 9.86377C16.1891 10.4113 15.961 11.0064 15.7442 11.5559L15.4875 12.2289H17.3375L17.0808 11.5559C16.8622 11.0083 16.6359 10.4132 16.4477 9.86377H16.3792H16.3773Z" fill="#1D1D1B"></path> <path d="M46.8887 10.2573C47.172 10.1337 47.4514 10.0006 47.7347 9.87704C47.9039 9.80479 48.0865 9.65079 48.25 9.70022C48.4249 9.75346 48.5979 9.80289 48.7652 9.8276C48.5599 9.6736 48.2861 9.59375 47.9134 9.59375C47.2803 9.59375 46.9229 9.85802 46.8906 10.2573H46.8887Z" fill="#1D1D1B"></path> <path d="M29.3383 4.91094C29.46 4.29493 29.5893 3.72455 29.7357 3.14087C29.5912 3.21692 29.4505 3.31008 29.3098 3.38993C29.2014 3.45077 29.1044 3.52682 28.9866 3.54964C29.0816 4.00404 29.1672 4.44893 29.2489 4.91094H29.3383Z" fill="#1D1D1B"></path> <path d="M33.1389 4.91086C33.2416 4.3709 33.3537 3.85756 33.4697 3.32331C33.2682 3.27958 33.0838 3.18452 32.9488 3.02862C32.8936 2.96588 32.8214 3.02862 32.753 3.02862C32.7168 3.02862 32.6807 3.02481 32.6465 3.02291C32.7948 3.64652 32.9184 4.25302 33.0495 4.90896H33.1389V4.91086Z" fill="#1D1D1B"></path> <path d="M20.718 30.4428H18.1646L17.6113 31.8745H16.444L18.8186 26.1099H20.1058L22.4804 31.8745H21.2636L20.7199 30.4428H20.718ZM18.522 29.5492H20.372L20.1153 28.8762C19.8985 28.3286 19.6704 27.7335 19.4822 27.186H19.4137C19.2255 27.7335 18.9974 28.3286 18.7806 28.8762L18.5239 29.5492H18.522Z" fill="#1D1D1B"></path> <path d="M22.161 29.9638L23.2485 29.7527C23.4063 30.5703 23.9805 31.0494 24.8912 31.0494C25.6536 31.0494 26.0491 30.7604 26.0491 30.3003C26.0491 29.8402 25.703 29.5892 24.5851 29.4257C22.9424 29.1766 22.4177 28.5321 22.4177 27.6575C22.4177 26.6385 23.1896 25.9863 24.6345 25.9863C26.1974 25.9863 26.8305 26.8039 27.0586 27.8591L25.9502 28.0796C25.762 27.321 25.4255 26.9179 24.5851 26.9179C23.9216 26.9179 23.5565 27.2069 23.5565 27.6385C23.5565 28.0226 23.7733 28.3021 25.0794 28.5131C26.7525 28.7717 27.1974 29.4447 27.1974 30.2622C27.1974 31.3003 26.4559 32.0019 24.8228 32.0019C23.0223 31.9924 22.2998 31.0798 22.161 29.9657V29.9638Z" fill="#1D1D1B"></path> <path d="M27.1652 26.1099H31.9544V27.1479H30.1235V31.8745H28.9961V27.1479H27.1652V26.1099Z" fill="#1D1D1B"></path> <path d="M35.2341 30.4428H32.6807L32.1275 31.8745H30.9601L33.3347 26.1099H34.6219L36.9966 31.8745H35.7798L35.236 30.4428H35.2341ZM33.0382 29.5492H34.8881L34.6314 28.8762C34.4147 28.3286 34.1865 27.7335 33.9983 27.186H33.9298C33.7416 27.7335 33.5135 28.3286 33.2967 28.8762L33.0401 29.5492H33.0382Z" fill="#1D1D1B"></path> <path d="M39.3198 29.2526C38.9833 28.6861 38.508 27.7925 38.1924 27.1479H38.1733C38.2038 27.859 38.2133 28.7431 38.2133 29.3477V31.8745H37.1353V26.1099H38.7969L40.0841 28.3686C40.4891 29.0796 40.9454 29.9447 41.261 30.5778H41.2705C41.261 29.9143 41.2515 29.2032 41.2515 28.6366V26.1099H42.3295V31.8745H40.856L39.3217 29.2507L39.3198 29.2526Z" fill="#1D1D1B"></path> <path d="M46.7404 30.4428H44.1871L43.6338 31.8745H42.4664L44.8411 26.1099H46.1282L48.5029 31.8745H47.2861L46.7424 30.4428H46.7404ZM44.5445 29.5492H46.3944L46.1378 28.8762C45.921 28.3286 45.6929 27.7335 45.5046 27.186H45.4362C45.248 27.7335 45.0198 28.3286 44.8031 28.8762L44.5464 29.5492H44.5445Z" fill="#1D1D1B"></path> </g> <defs> <clipPath id="clip0_665_464"> <rect width="64.9449" height="32" fill="white"></rect> </clipPath> </defs> </svg> 